<svg width="603" height="148" viewBox="0 0 603 148" fill="none" xmlns="http://www.w3.org/2000/svg">
<path d="M279.128 139.288C277.635 139.288 276.387 138.968 275.384 138.328C274.403 137.688 273.656 136.803 273.144 135.672C272.632 134.541 272.333 133.229 272.248 131.736L275.448 130.872C275.512 131.789 275.651 132.675 275.864 133.528C276.099 134.381 276.472 135.085 276.984 135.64C277.496 136.173 278.211 136.44 279.128 136.44C280.067 136.44 280.771 136.184 281.24 135.672C281.731 135.139 281.976 134.381 281.976 133.4C281.976 132.227 281.709 131.288 281.176 130.584C280.643 129.859 279.971 129.133 279.16 128.408L274.808 124.568C273.955 123.821 273.325 123.011 272.92 122.136C272.515 121.24 272.312 120.141 272.312 118.84C272.312 116.941 272.856 115.469 273.944 114.424C275.032 113.379 276.515 112.856 278.392 112.856C279.416 112.856 280.312 112.995 281.08 113.272C281.869 113.528 282.52 113.933 283.032 114.488C283.565 115.043 283.981 115.747 284.28 116.6C284.6 117.432 284.813 118.413 284.92 119.544L281.848 120.376C281.784 119.523 281.656 118.744 281.464 118.04C281.272 117.315 280.931 116.739 280.44 116.312C279.971 115.864 279.288 115.64 278.392 115.64C277.496 115.64 276.792 115.885 276.28 116.376C275.789 116.845 275.544 117.549 275.544 118.488C275.544 119.277 275.672 119.928 275.928 120.44C276.205 120.952 276.643 121.475 277.24 122.008L281.624 125.848C282.605 126.701 283.469 127.725 284.216 128.92C284.963 130.093 285.336 131.491 285.336 133.112C285.336 134.392 285.069 135.501 284.536 136.44C284.003 137.357 283.267 138.061 282.328 138.552C281.411 139.043 280.344 139.288 279.128 139.288ZM277.688 111.544L279.576 105.208H283L279.416 111.544H277.688ZM289.997 139L287.021 120.504H289.837L291.757 134.136L294.221 120.504H296.845L299.309 134.072L301.229 120.504H304.045L300.973 139H298.093L295.565 125.944L293.069 139H289.997ZM306.89 139V120.504H310.314V139H306.89ZM306.89 117.752V114.168H310.314V117.752H306.89ZM317.306 139.256C316.581 139.256 315.941 139.053 315.386 138.648C314.831 138.221 314.394 137.688 314.074 137.048C313.754 136.387 313.594 135.693 313.594 134.968C313.594 133.816 313.786 132.845 314.17 132.056C314.554 131.267 315.077 130.605 315.738 130.072C316.421 129.517 317.199 129.037 318.074 128.632C318.97 128.227 319.909 127.832 320.89 127.448V126.136C320.89 125.389 320.847 124.771 320.762 124.28C320.677 123.789 320.495 123.427 320.218 123.192C319.962 122.936 319.567 122.808 319.034 122.808C318.565 122.808 318.181 122.915 317.882 123.128C317.605 123.341 317.402 123.651 317.274 124.056C317.146 124.44 317.082 124.899 317.082 125.432V126.36L313.69 126.232C313.733 124.184 314.202 122.68 315.098 121.72C315.994 120.739 317.381 120.248 319.258 120.248C321.093 120.248 322.394 120.749 323.162 121.752C323.93 122.755 324.314 124.205 324.314 126.104V134.552C324.314 135.128 324.325 135.683 324.346 136.216C324.389 136.749 324.431 137.251 324.474 137.72C324.538 138.168 324.591 138.595 324.634 139H321.498C321.434 138.659 321.349 138.232 321.242 137.72C321.157 137.187 321.093 136.707 321.05 136.28C320.837 137.005 320.421 137.688 319.802 138.328C319.205 138.947 318.373 139.256 317.306 139.256ZM318.65 136.312C318.991 136.312 319.311 136.216 319.61 136.024C319.909 135.832 320.175 135.619 320.41 135.384C320.645 135.128 320.805 134.925 320.89 134.776V129.528C320.357 129.827 319.855 130.125 319.386 130.424C318.917 130.723 318.501 131.043 318.138 131.384C317.797 131.704 317.519 132.077 317.306 132.504C317.114 132.909 317.018 133.379 317.018 133.912C317.018 134.659 317.157 135.245 317.434 135.672C317.711 136.099 318.117 136.312 318.65 136.312ZM332.281 139.256C331.321 139.256 330.542 139.075 329.945 138.712C329.369 138.349 328.942 137.837 328.665 137.176C328.409 136.515 328.281 135.736 328.281 134.84V122.776H326.329V120.504H328.281V115.096H331.705V120.504H334.681V122.776H331.705V134.616C331.705 135.341 331.822 135.864 332.057 136.184C332.292 136.483 332.74 136.632 333.401 136.632C333.572 136.632 333.764 136.621 333.977 136.6C334.212 136.579 334.436 136.557 334.649 136.536V139.064C334.222 139.128 333.828 139.171 333.465 139.192C333.102 139.235 332.708 139.256 332.281 139.256ZM344.509 145.08V120.504H347.933V121.976C348.339 121.507 348.829 121.101 349.405 120.76C349.981 120.419 350.664 120.248 351.453 120.248C352.413 120.248 353.171 120.504 353.725 121.016C354.301 121.507 354.728 122.136 355.005 122.904C355.283 123.651 355.464 124.419 355.549 125.208C355.635 125.976 355.677 126.637 355.677 127.192V131.672C355.677 132.973 355.549 134.211 355.293 135.384C355.037 136.536 354.568 137.475 353.885 138.2C353.224 138.904 352.285 139.256 351.069 139.256C350.408 139.256 349.821 139.096 349.309 138.776C348.797 138.435 348.339 138.051 347.933 137.624V145.08H344.509ZM350.397 136.568C350.995 136.568 351.421 136.355 351.677 135.928C351.933 135.48 352.093 134.883 352.157 134.136C352.221 133.389 352.253 132.568 352.253 131.672V127.192C352.253 126.424 352.211 125.72 352.125 125.08C352.04 124.419 351.859 123.896 351.581 123.512C351.304 123.128 350.867 122.936 350.269 122.936C349.821 122.936 349.395 123.032 348.989 123.224C348.584 123.416 348.232 123.64 347.933 123.896V135.736C348.253 135.971 348.616 136.173 349.021 136.344C349.427 136.493 349.885 136.568 350.397 136.568ZM363.911 139.256C362.46 139.256 361.34 138.979 360.551 138.424C359.761 137.848 359.207 137.016 358.887 135.928C358.588 134.819 358.439 133.464 358.439 131.864V127.64C358.439 125.997 358.599 124.632 358.919 123.544C359.239 122.456 359.793 121.635 360.583 121.08C361.393 120.525 362.503 120.248 363.911 120.248C365.468 120.248 366.609 120.568 367.335 121.208C368.081 121.848 368.572 122.776 368.807 123.992C369.041 125.187 369.159 126.627 369.159 128.312V129.816H361.863V133.528C361.863 134.275 361.927 134.883 362.055 135.352C362.204 135.821 362.428 136.173 362.727 136.408C363.047 136.621 363.452 136.728 363.943 136.728C364.455 136.728 364.839 136.611 365.095 136.376C365.372 136.12 365.553 135.768 365.639 135.32C365.745 134.851 365.799 134.307 365.799 133.688V132.568H369.127V133.272C369.127 135.128 368.732 136.589 367.943 137.656C367.153 138.723 365.809 139.256 363.911 139.256ZM361.863 127.96H365.799V126.296C365.799 125.528 365.756 124.888 365.671 124.376C365.585 123.843 365.404 123.448 365.127 123.192C364.871 122.915 364.455 122.776 363.879 122.776C363.324 122.776 362.897 122.904 362.599 123.16C362.321 123.416 362.129 123.853 362.023 124.472C361.916 125.069 361.863 125.901 361.863 126.968V127.96ZM373.251 139V125.688L371.075 126.744V124.056L373.251 123.032V113.08H376.675V121.464L378.627 120.504V123.16L376.675 124.12V139H373.251ZM385.911 139.256C384.46 139.256 383.34 138.979 382.551 138.424C381.761 137.848 381.207 137.016 380.887 135.928C380.588 134.819 380.439 133.464 380.439 131.864V127.64C380.439 125.997 380.599 124.632 380.919 123.544C381.239 122.456 381.793 121.635 382.583 121.08C383.393 120.525 384.503 120.248 385.911 120.248C387.468 120.248 388.609 120.568 389.335 121.208C390.081 121.848 390.572 122.776 390.807 123.992C391.041 125.187 391.159 126.627 391.159 128.312V129.816H383.863V133.528C383.863 134.275 383.927 134.883 384.055 135.352C384.204 135.821 384.428 136.173 384.727 136.408C385.047 136.621 385.452 136.728 385.943 136.728C386.455 136.728 386.839 136.611 387.095 136.376C387.372 136.12 387.553 135.768 387.639 135.32C387.745 134.851 387.799 134.307 387.799 133.688V132.568H391.127V133.272C391.127 135.128 390.732 136.589 389.943 137.656C389.153 138.723 387.809 139.256 385.911 139.256ZM383.863 127.96H387.799V126.296C387.799 125.528 387.756 124.888 387.671 124.376C387.585 123.843 387.404 123.448 387.127 123.192C386.871 122.915 386.455 122.776 385.879 122.776C385.324 122.776 384.897 122.904 384.599 123.16C384.321 123.416 384.129 123.853 384.023 124.472C383.916 125.069 383.863 125.901 383.863 126.968V127.96ZM394.259 139V120.504H397.683V122.328C398.302 121.752 398.985 121.261 399.731 120.856C400.478 120.451 401.299 120.248 402.195 120.248C402.942 120.248 403.507 120.44 403.891 120.824C404.297 121.208 404.574 121.688 404.723 122.264C404.894 122.84 404.979 123.427 404.979 124.024V139H401.555V125.016C401.555 124.355 401.459 123.843 401.267 123.48C401.075 123.117 400.681 122.936 400.083 122.936C399.699 122.936 399.294 123.053 398.867 123.288C398.462 123.501 398.067 123.768 397.683 124.088V139H394.259ZM417.778 139L414.802 120.504H417.618L419.538 134.136L422.002 120.504H424.626L427.09 134.072L429.01 120.504H431.826L428.754 139H425.874L423.346 125.944L420.85 139H417.778ZM439.535 139.256C438.169 139.256 437.092 138.979 436.303 138.424C435.513 137.869 434.948 137.08 434.607 136.056C434.287 135.032 434.127 133.827 434.127 132.44V127.064C434.127 125.677 434.287 124.472 434.607 123.448C434.948 122.424 435.513 121.635 436.303 121.08C437.092 120.525 438.169 120.248 439.535 120.248C440.9 120.248 441.967 120.525 442.735 121.08C443.524 121.635 444.079 122.424 444.399 123.448C444.74 124.472 444.911 125.677 444.911 127.064V132.44C444.911 133.827 444.74 135.032 444.399 136.056C444.079 137.08 443.524 137.869 442.735 138.424C441.967 138.979 440.9 139.256 439.535 139.256ZM439.535 136.728C440.196 136.728 440.655 136.536 440.911 136.152C441.188 135.768 441.348 135.267 441.391 134.648C441.455 134.008 441.487 133.347 441.487 132.664V126.872C441.487 126.168 441.455 125.507 441.391 124.888C441.348 124.269 441.188 123.768 440.911 123.384C440.655 122.979 440.196 122.776 439.535 122.776C438.873 122.776 438.404 122.979 438.127 123.384C437.849 123.768 437.679 124.269 437.615 124.888C437.572 125.507 437.551 126.168 437.551 126.872V132.664C437.551 133.347 437.572 134.008 437.615 134.648C437.679 135.267 437.849 135.768 438.127 136.152C438.404 136.536 438.873 136.728 439.535 136.728ZM452.329 139.256C450.771 139.256 449.609 138.691 448.841 137.56C448.073 136.408 447.689 134.467 447.689 131.736V128.152C447.689 126.744 447.806 125.443 448.041 124.248C448.275 123.032 448.713 122.061 449.353 121.336C450.014 120.611 450.974 120.248 452.233 120.248C452.851 120.248 453.417 120.387 453.929 120.664C454.441 120.941 454.899 121.283 455.305 121.688V113.08H458.729V139H455.305V137.816C454.899 138.243 454.451 138.595 453.961 138.872C453.491 139.128 452.947 139.256 452.329 139.256ZM453.193 136.568C453.513 136.568 453.854 136.515 454.217 136.408C454.579 136.28 454.942 136.099 455.305 135.864V123.736C455.006 123.523 454.675 123.341 454.312 123.192C453.95 123.021 453.555 122.936 453.129 122.936C452.339 122.936 451.806 123.32 451.529 124.088C451.251 124.835 451.113 125.741 451.113 126.808V132.024C451.113 132.877 451.155 133.656 451.241 134.36C451.347 135.043 451.55 135.587 451.849 135.992C452.147 136.376 452.595 136.568 453.193 136.568ZM462.197 139V120.504H465.621V122.328C466.239 121.752 466.922 121.261 467.669 120.856C468.415 120.451 469.237 120.248 470.133 120.248C470.879 120.248 471.445 120.44 471.829 120.824C472.234 121.208 472.511 121.688 472.661 122.264C472.831 122.84 472.917 123.427 472.917 124.024V139H469.493V125.016C469.493 124.355 469.397 123.843 469.205 123.48C469.013 123.117 468.618 122.936 468.021 122.936C467.637 122.936 467.231 123.053 466.805 123.288C466.399 123.501 466.005 123.768 465.621 124.088V139H462.197ZM475.971 143.64V141.016C476.803 141.016 477.465 140.973 477.955 140.888C478.446 140.824 478.798 140.685 479.011 140.472C479.225 140.28 479.331 140.003 479.331 139.64C479.331 139.448 479.257 139.021 479.107 138.36C478.958 137.699 478.798 136.995 478.627 136.248L474.915 120.504H478.371L480.867 134.328L483.267 120.504H486.723L482.307 140.024C482.115 140.92 481.763 141.624 481.251 142.136C480.739 142.669 480.078 143.053 479.267 143.288C478.478 143.523 477.518 143.64 476.387 143.64H475.971ZM493.847 139.256C492.332 139.256 491.18 138.957 490.391 138.36C489.623 137.741 489.1 136.877 488.823 135.768C488.567 134.659 488.439 133.368 488.439 131.896V127.64C488.439 126.083 488.577 124.76 488.855 123.672C489.132 122.563 489.655 121.72 490.423 121.144C491.212 120.547 492.353 120.248 493.847 120.248C495.191 120.248 496.225 120.472 496.951 120.92C497.697 121.347 498.209 121.997 498.487 122.872C498.764 123.725 498.903 124.792 498.903 126.072V127.16H495.799V126.04C495.799 125.229 495.745 124.589 495.639 124.12C495.532 123.651 495.34 123.309 495.062 123.096C494.785 122.883 494.391 122.776 493.879 122.776C493.324 122.776 492.897 122.904 492.599 123.16C492.3 123.416 492.097 123.853 491.991 124.472C491.905 125.069 491.863 125.891 491.863 126.936V132.76C491.863 134.339 492.012 135.395 492.311 135.928C492.609 136.461 493.143 136.728 493.911 136.728C494.487 136.728 494.903 136.6 495.159 136.344C495.436 136.067 495.607 135.683 495.671 135.192C495.756 134.701 495.799 134.147 495.799 133.528V132.024H498.903V133.304C498.903 134.541 498.753 135.608 498.455 136.504C498.177 137.4 497.665 138.083 496.919 138.552C496.193 139.021 495.169 139.256 493.847 139.256ZM502.043 139V113.08H505.467V122.424C506.085 121.827 506.779 121.315 507.547 120.888C508.315 120.461 509.168 120.248 510.107 120.248C510.832 120.248 511.387 120.44 511.771 120.824C512.176 121.208 512.453 121.688 512.603 122.264C512.773 122.84 512.859 123.427 512.859 124.024V139H509.435V125.016C509.435 124.355 509.339 123.843 509.147 123.48C508.955 123.117 508.56 122.936 507.963 122.936C507.557 122.936 507.131 123.053 506.683 123.288C506.256 123.523 505.851 123.811 505.467 124.152V139H502.043ZM527.797 139.256C526.24 139.256 525.077 138.691 524.309 137.56C523.541 136.408 523.157 134.467 523.157 131.736V128.152C523.157 126.744 523.275 125.443 523.509 124.248C523.744 123.032 524.181 122.061 524.821 121.336C525.483 120.611 526.443 120.248 527.701 120.248C528.32 120.248 528.885 120.387 529.397 120.664C529.909 120.941 530.368 121.283 530.773 121.688V113.08H534.197V139H530.773V137.816C530.368 138.243 529.92 138.595 529.429 138.872C528.96 139.128 528.416 139.256 527.797 139.256ZM528.661 136.568C528.981 136.568 529.323 136.515 529.685 136.408C530.048 136.28 530.411 136.099 530.773 135.864V123.736C530.475 123.523 530.144 123.341 529.781 123.192C529.419 123.021 529.024 122.936 528.597 122.936C527.808 122.936 527.275 123.32 526.997 124.088C526.72 124.835 526.581 125.741 526.581 126.808V132.024C526.581 132.877 526.624 133.656 526.709 134.36C526.816 135.043 527.019 135.587 527.317 135.992C527.616 136.376 528.064 136.568 528.661 136.568ZM542.754 139.256C541.388 139.256 540.311 138.979 539.522 138.424C538.732 137.869 538.167 137.08 537.826 136.056C537.506 135.032 537.346 133.827 537.346 132.44V127.064C537.346 125.677 537.506 124.472 537.826 123.448C538.167 122.424 538.732 121.635 539.522 121.08C540.311 120.525 541.388 120.248 542.754 120.248C544.119 120.248 545.186 120.525 545.954 121.08C546.743 121.635 547.298 122.424 547.618 123.448C547.959 124.472 548.13 125.677 548.13 127.064V132.44C548.13 133.827 547.959 135.032 547.618 136.056C547.298 137.08 546.743 137.869 545.954 138.424C545.186 138.979 544.119 139.256 542.754 139.256ZM542.754 136.728C543.415 136.728 543.874 136.536 544.13 136.152C544.407 135.768 544.567 135.267 544.61 134.648C544.674 134.008 544.706 133.347 544.706 132.664V126.872C544.706 126.168 544.674 125.507 544.61 124.888C544.567 124.269 544.407 123.768 544.13 123.384C543.874 122.979 543.415 122.776 542.754 122.776C542.092 122.776 541.623 122.979 541.346 123.384C541.068 123.768 540.898 124.269 540.834 124.888C540.791 125.507 540.77 126.168 540.77 126.872V132.664C540.77 133.347 540.791 134.008 540.834 134.648C540.898 135.267 541.068 135.768 541.346 136.152C541.623 136.536 542.092 136.728 542.754 136.728ZM550.555 139V136.696L556.219 123.064H551.131V120.504H559.899V122.36L554.203 136.408H559.771V139H550.555ZM562.353 139V120.504H565.777V122.328C566.396 121.752 567.078 121.261 567.825 120.856C568.572 120.451 569.393 120.248 570.289 120.248C571.036 120.248 571.601 120.44 571.985 120.824C572.39 121.208 572.668 121.688 572.817 122.264C572.988 122.84 573.073 123.427 573.073 124.024V139H569.649V125.016C569.649 124.355 569.553 123.843 569.361 123.48C569.169 123.117 568.774 122.936 568.177 122.936C567.793 122.936 567.388 123.053 566.961 123.288C566.556 123.501 566.161 123.768 565.777 124.088V139H562.353ZM579.744 139.256C579.018 139.256 578.378 139.053 577.824 138.648C577.269 138.221 576.832 137.688 576.512 137.048C576.192 136.387 576.032 135.693 576.032 134.968C576.032 133.816 576.224 132.845 576.608 132.056C576.992 131.267 577.514 130.605 578.176 130.072C578.858 129.517 579.637 129.037 580.512 128.632C581.408 128.227 582.346 127.832 583.328 127.448V126.136C583.328 125.389 583.285 124.771 583.2 124.28C583.114 123.789 582.933 123.427 582.656 123.192C582.4 122.936 582.005 122.808 581.472 122.808C581.002 122.808 580.618 122.915 580.32 123.128C580.042 123.341 579.84 123.651 579.712 124.056C579.584 124.44 579.52 124.899 579.52 125.432V126.36L576.128 126.232C576.17 124.184 576.64 122.68 577.536 121.72C578.432 120.739 579.818 120.248 581.696 120.248C583.53 120.248 584.832 120.749 585.6 121.752C586.368 122.755 586.752 124.205 586.752 126.104V134.552C586.752 135.128 586.762 135.683 586.784 136.216C586.826 136.749 586.869 137.251 586.912 137.72C586.976 138.168 587.029 138.595 587.072 139H583.936C583.872 138.659 583.786 138.232 583.68 137.72C583.594 137.187 583.53 136.707 583.488 136.28C583.274 137.005 582.858 137.688 582.24 138.328C581.642 138.947 580.81 139.256 579.744 139.256ZM581.088 136.312C581.429 136.312 581.749 136.216 582.048 136.024C582.346 135.832 582.613 135.619 582.848 135.384C583.082 135.128 583.242 134.925 583.328 134.776V129.528C582.794 129.827 582.293 130.125 581.824 130.424C581.354 130.723 580.938 131.043 580.576 131.384C580.234 131.704 579.957 132.077 579.744 132.504C579.552 132.909 579.456 133.379 579.456 133.912C579.456 134.659 579.594 135.245 579.872 135.672C580.149 136.099 580.554 136.312 581.088 136.312ZM590.041 139V120.504H593.465V122.328C594.083 121.752 594.766 121.261 595.513 120.856C596.259 120.451 597.081 120.248 597.977 120.248C598.723 120.248 599.289 120.44 599.673 120.824C600.078 121.208 600.355 121.688 600.505 122.264C600.675 122.84 600.761 123.427 600.761 124.024V139H597.337V125.016C597.337 124.355 597.241 123.843 597.049 123.48C596.856 123.117 596.462 122.936 595.865 122.936C595.481 122.936 595.075 123.053 594.649 123.288C594.243 123.501 593.849 123.768 593.465 124.088V139H590.041ZM594.457 118.968L596.345 112.632H599.769L596.185 118.968H594.457Z" fill="#E4E2E6"/>
<path d="M53.6869 39.4137C54.8084 42.1444 55.3691 44.997 55.3691 47.9714V101H40.6674V82.4217H29.5497V67.7931H40.6674V47.4594C40.6674 45.3627 39.9604 43.6316 38.5463 42.2663C37.1322 40.901 35.3768 40.2183 33.28 40.2183H24.6491C23.2838 40.2183 21.8941 40.901 20.48 42.2663C19.1147 43.6316 18.432 45.3627 18.432 47.4594V101H3.65714V47.9714C3.65714 44.997 4.24229 42.1444 5.41257 39.4137C6.63162 36.6831 8.26514 34.2937 10.3131 32.2457C12.3124 30.1977 14.653 28.5886 17.3349 27.4183C19.8705 26.3455 22.5768 25.7848 25.4537 25.736H33.3531C36.3276 25.736 39.1558 26.2968 41.8377 27.4183C44.5684 28.5886 46.9577 30.1977 49.0057 32.2457C51.005 34.2937 52.5653 36.6831 53.6869 39.4137ZM120.839 87.6149C121.229 87.7124 121.643 87.7611 122.082 87.7611H122.521V99.976H120.839C116.206 99.8297 112.427 99.147 109.501 97.928C108.624 98.4156 107.673 98.8789 106.649 99.3177C103.967 100.39 101.163 100.951 98.2374 101H91.6546C88.6313 101 85.73 100.439 82.9506 99.3177C80.2199 98.1474 77.8062 96.5627 75.7094 94.5634C73.5639 92.4667 71.8816 90.1017 70.6626 87.4686C69.4923 84.8842 68.9071 82.0804 68.9071 79.0571V47.6789C68.9071 44.7044 69.5167 41.9006 70.7357 39.2674C72.0035 36.5855 73.6614 34.245 75.7094 32.2457C77.8062 30.1977 80.2199 28.613 82.9506 27.4914C85.73 26.3211 88.6313 25.736 91.6546 25.736H97.7254C100.7 25.736 103.601 26.3211 106.429 27.4914C109.209 28.613 111.647 30.1977 113.744 32.2457C115.889 34.245 117.523 36.5855 118.644 39.2674C119.815 41.9006 120.4 44.7044 120.4 47.6789V79.0571C120.4 81.8366 119.888 84.5185 118.864 87.1029C118.864 87.1516 118.888 87.176 118.937 87.176H119.083C119.717 87.4198 120.302 87.5661 120.839 87.6149ZM105.259 78.5451V47.0937C105.259 45.0945 104.528 43.4122 103.065 42.0469C101.553 40.7303 99.7247 40.0476 97.5791 39.9989H91.5083C89.4115 39.9989 87.6561 40.6815 86.242 42.0469C84.8767 43.4122 84.194 45.0945 84.194 47.0937V79.5691C84.194 81.6171 84.8767 83.2994 86.242 84.616C87.6561 85.9813 89.4115 86.664 91.5083 86.664H97.5791C98.1643 86.664 98.5788 86.6396 98.8226 86.5909C98.1399 84.5916 97.7498 82.4705 97.6523 80.2274V78.5451H105.259ZM169.979 79.3497V25.736H185.119V78.8377C185.119 81.861 184.534 84.6891 183.364 87.3223C182.242 90.053 180.633 92.4179 178.536 94.4171C176.44 96.5139 173.977 98.123 171.149 99.2446C168.467 100.366 165.663 100.951 162.737 101H156.155C153.131 101 150.23 100.415 147.451 99.2446C144.72 98.123 142.306 96.5139 140.209 94.4171C138.064 92.3204 136.382 89.931 135.163 87.2491C133.992 84.6648 133.407 81.861 133.407 78.8377V25.736H148.694V79.3497C148.694 81.3977 149.377 83.1044 150.742 84.4697C152.156 85.835 153.912 86.5177 156.008 86.5177H162.445C164.542 86.469 166.321 85.7863 167.784 84.4697C169.247 83.1044 169.979 81.3977 169.979 79.3497ZM248.812 39.4137C249.933 42.1444 250.494 44.997 250.494 47.9714V101H235.792V82.4217H224.675V67.7931H235.792V47.4594C235.792 45.3627 235.085 43.6316 233.671 42.2663C232.257 40.901 230.502 40.2183 228.405 40.2183H219.774C218.409 40.2183 217.019 40.901 215.605 42.2663C214.24 43.6316 213.557 45.3627 213.557 47.4594V101H198.782V47.9714C198.782 44.997 199.367 42.1444 200.538 39.4137C201.757 36.6831 203.39 34.2937 205.438 32.2457C207.437 30.1977 209.778 28.5886 212.46 27.4183C214.995 26.3455 217.702 25.7848 220.579 25.736H228.478C231.453 25.736 234.281 26.2968 236.963 27.4183C239.693 28.5886 242.083 30.1977 244.131 32.2457C246.13 34.2937 247.69 36.6831 248.812 39.4137ZM296.727 50.9703V46.728C296.727 44.7288 296.02 43.0709 294.606 41.7543C294.606 41.7055 294.581 41.6568 294.533 41.608C294.484 41.5592 294.435 41.5349 294.386 41.5349C293.167 40.7059 291.753 40.2914 290.144 40.2914H284.585C283.269 40.4865 282.123 40.9741 281.148 41.7543C279.831 42.7783 279.173 44.4362 279.173 46.728C279.173 49.0686 279.782 50.824 281.001 51.9943C282.415 53.2621 284.805 54.5787 288.169 55.944L297.678 59.6743C300.165 60.747 302.261 62.0392 303.968 63.5509C306.065 65.355 307.869 67.5493 309.381 70.1337C310.941 72.7181 311.721 75.6682 311.721 78.984C311.721 85.2743 309.454 90.6137 304.919 95.0023C302.871 96.9528 300.482 98.44 297.751 99.464C295.02 100.488 292.095 101 288.974 101H285.536C282.708 100.951 279.929 100.39 277.198 99.3177C275.101 98.44 273.175 97.2941 271.42 95.88C271.176 95.6362 270.932 95.4168 270.688 95.2217C268.64 93.2225 267.007 90.9063 265.788 88.2731C265.007 86.469 264.471 84.6404 264.178 82.7874C264.081 81.861 264.032 80.9589 264.032 80.0811V75.7657H279.026V80.0811C279.026 82.0316 279.709 83.6651 281.074 84.9817L281.294 85.2011C282.562 85.9813 283.976 86.3958 285.536 86.4446H291.095C292.46 86.2495 293.606 85.7619 294.533 84.9817C295.898 83.9577 296.581 82.3242 296.581 80.0811C296.581 77.6918 295.971 75.912 294.752 74.7417C293.338 73.4739 290.924 72.133 287.511 70.7189L278.076 67.1349C275.589 66.0133 273.468 64.6968 271.712 63.1851C269.664 61.3322 267.86 59.1135 266.3 56.5291C264.788 53.9448 264.032 51.019 264.032 47.752C264.032 41.4617 266.3 36.1223 270.834 31.7337C272.882 29.7345 275.272 28.2472 278.002 27.272C280.733 26.248 283.659 25.736 286.78 25.736H290.144C293.021 25.7848 295.801 26.3455 298.482 27.4183C300.628 28.296 302.554 29.4419 304.261 30.856C304.505 31.0511 304.748 31.2949 304.992 31.5874C307.089 33.5379 308.722 35.8297 309.893 38.4629C310.722 40.267 311.258 42.12 311.502 44.0217C311.648 44.8507 311.721 45.7528 311.721 46.728V50.9703H296.727ZM365.088 33.7086C370.988 39.6088 373.938 46.3867 373.938 54.0423C373.938 61.6491 370.988 68.3051 365.088 74.0103C359.871 79.0815 352.825 81.6171 343.95 81.6171H335.1V101H320.032V67.7931H344.462C346.412 67.7931 348.143 67.5981 349.655 67.208C351.41 66.7691 352.946 65.8914 354.263 64.5749C357.14 61.6979 358.578 58.187 358.578 54.0423C358.578 49.605 357.14 46.021 354.263 43.2903C352.946 42.0712 351.41 41.2179 349.655 40.7303C347.997 40.2427 346.022 39.9745 343.73 39.9257H320.032V25.736H343.804C352.776 25.7848 359.871 28.4423 365.088 33.7086ZM397.651 87.0297H421.35V100.927H420.179C420.082 100.976 419.936 101 419.741 101H384.266C383.827 101 383.462 100.829 383.169 100.488C382.828 100.098 382.657 99.7322 382.657 99.3909V25.736H397.651V87.0297ZM480.312 39.4137C481.433 42.1444 481.994 44.997 481.994 47.9714V101H467.292V82.4217H456.175V67.7931H467.292V47.4594C467.292 45.3627 466.585 43.6316 465.171 42.2663C463.757 40.901 462.002 40.2183 459.905 40.2183H451.274C449.909 40.2183 448.519 40.901 447.105 42.2663C445.74 43.6316 445.057 45.3627 445.057 47.4594V101H430.282V47.9714C430.282 44.997 430.867 42.1444 432.038 39.4137C433.257 36.6831 434.89 34.2937 436.938 32.2457C438.937 30.1977 441.278 28.5886 443.96 27.4183C446.495 26.3455 449.202 25.7848 452.079 25.736H459.978C462.953 25.736 465.781 26.2968 468.463 27.4183C471.193 28.5886 473.583 30.1977 475.631 32.2457C477.63 34.2937 479.19 36.6831 480.312 39.4137ZM528.227 50.9703V46.728C528.227 44.7288 527.52 43.0709 526.106 41.7543C526.106 41.7055 526.081 41.6568 526.033 41.608C525.984 41.5592 525.935 41.5349 525.886 41.5349C524.667 40.7059 523.253 40.2914 521.644 40.2914H516.085C514.769 40.4865 513.623 40.9741 512.648 41.7543C511.331 42.7783 510.673 44.4362 510.673 46.728C510.673 49.0686 511.282 50.824 512.501 51.9943C513.915 53.2621 516.305 54.5787 519.669 55.944L529.178 59.6743C531.665 60.747 533.761 62.0392 535.468 63.5509C537.565 65.355 539.369 67.5493 540.881 70.1337C542.441 72.7181 543.221 75.6682 543.221 78.984C543.221 85.2743 540.954 90.6137 536.419 95.0023C534.371 96.9528 531.982 98.44 529.251 99.464C526.52 100.488 523.595 101 520.474 101H517.036C514.208 100.951 511.429 100.39 508.698 99.3177C506.601 98.44 504.675 97.2941 502.92 95.88C502.676 95.6362 502.432 95.4168 502.188 95.2217C500.14 93.2225 498.507 90.9063 497.288 88.2731C496.507 86.469 495.971 84.6404 495.678 82.7874C495.581 81.861 495.532 80.9589 495.532 80.0811V75.7657H510.526V80.0811C510.526 82.0316 511.209 83.6651 512.574 84.9817L512.794 85.2011C514.062 85.9813 515.476 86.3958 517.036 86.4446H522.595C523.96 86.2495 525.106 85.7619 526.033 84.9817C527.398 83.9577 528.081 82.3242 528.081 80.0811C528.081 77.6918 527.471 75.912 526.252 74.7417C524.838 73.4739 522.424 72.133 519.011 70.7189L509.576 67.1349C507.089 66.0133 504.968 64.6968 503.212 63.1851C501.164 61.3322 499.36 59.1135 497.8 56.5291C496.288 53.9448 495.532 51.019 495.532 47.752C495.532 41.4617 497.8 36.1223 502.334 31.7337C504.382 29.7345 506.772 28.2472 509.502 27.272C512.233 26.248 515.159 25.736 518.28 25.736H521.644C524.521 25.7848 527.301 26.3455 529.982 27.4183C532.128 28.296 534.054 29.4419 535.761 30.856C536.005 31.0511 536.248 31.2949 536.492 31.5874C538.589 33.5379 540.222 35.8297 541.393 38.4629C542.222 40.267 542.758 42.12 543.002 44.0217C543.148 44.8507 543.221 45.7528 543.221 46.728V50.9703H528.227ZM582.896 25.736H597.89V101H582.896V70.7189H567.901V101H552.907V25.736H567.901V56.0171H582.896V25.736Z" fill="#B2C5FF"/>
</svg>
