<svg width="121" height="131" viewBox="0 0 121 131" fill="none" xmlns="http://www.w3.org/2000/svg">
<path d="M53.6869 39.4137C54.8084 42.1444 55.3691 44.997 55.3691 47.9714V101H40.6674V82.4217H29.5497V67.7931H40.6674V47.4594C40.6674 45.3627 39.9604 43.6316 38.5463 42.2663C37.1322 40.901 35.3768 40.2183 33.28 40.2183H24.6491C23.2838 40.2183 21.8941 40.901 20.48 42.2663C19.1147 43.6316 18.432 45.3627 18.432 47.4594V101H3.65714V47.9714C3.65714 44.997 4.24229 42.1444 5.41257 39.4137C6.63162 36.6831 8.26514 34.2937 10.3131 32.2457C12.3124 30.1977 14.653 28.5886 17.3349 27.4183C19.8705 26.3455 22.5768 25.7848 25.4537 25.736H33.3531C36.3276 25.736 39.1558 26.2968 41.8377 27.4183C44.5684 28.5886 46.9577 30.1977 49.0057 32.2457C51.005 34.2937 52.5653 36.6831 53.6869 39.4137ZM101.602 50.9703V46.728C101.602 44.7288 100.895 43.0709 99.4809 41.7543C99.4809 41.7055 99.4565 41.6568 99.4077 41.608C99.359 41.5592 99.3102 41.5349 99.2614 41.5349C98.0424 40.7059 96.6283 40.2914 95.0191 40.2914H89.4603C88.1437 40.4865 86.9978 40.9741 86.0226 41.7543C84.706 42.7783 84.0477 44.4362 84.0477 46.728C84.0477 49.0686 84.6572 50.824 85.8763 51.9943C87.2904 53.2621 89.6797 54.5787 93.0443 55.944L102.553 59.6743C105.04 60.747 107.136 62.0392 108.843 63.5509C110.94 65.355 112.744 67.5493 114.256 70.1337C115.816 72.7181 116.596 75.6682 116.596 78.984C116.596 85.2743 114.329 90.6137 109.794 95.0023C107.746 96.9528 105.357 98.44 102.626 99.464C99.8953 100.488 96.9696 101 93.8489 101H90.4111C87.583 100.951 84.8035 100.39 82.0729 99.3177C79.9761 98.44 78.05 97.2941 76.2946 95.88C76.0508 95.6362 75.807 95.4168 75.5631 95.2217C73.5151 93.2225 71.8816 90.9063 70.6626 88.2731C69.8824 86.469 69.346 84.6404 69.0534 82.7874C68.9559 81.861 68.9071 80.9589 68.9071 80.0811V75.7657H83.9014V80.0811C83.9014 82.0316 84.5841 83.6651 85.9494 84.9817L86.1689 85.2011C87.4367 85.9813 88.8508 86.3958 90.4111 86.4446H95.97C97.3353 86.2495 98.4812 85.7619 99.4077 84.9817C100.773 83.9577 101.456 82.3242 101.456 80.0811C101.456 77.6918 100.846 75.912 99.6271 74.7417C98.213 73.4739 95.7993 72.133 92.386 70.7189L82.9506 67.1349C80.4637 66.0133 78.3426 64.6968 76.5871 63.1851C74.5391 61.3322 72.735 59.1135 71.1746 56.5291C69.663 53.9448 68.9071 51.019 68.9071 47.752C68.9071 41.4617 71.1746 36.1223 75.7094 31.7337C77.7574 29.7345 80.1468 28.2472 82.8774 27.272C85.6081 26.248 88.5338 25.736 91.6546 25.736H95.0191C97.8961 25.7848 100.676 26.3455 103.357 27.4183C105.503 28.296 107.429 29.4419 109.136 30.856C109.38 31.0511 109.623 31.2949 109.867 31.5874C111.964 33.5379 113.597 35.8297 114.768 38.4629C115.597 40.267 116.133 42.12 116.377 44.0217C116.523 44.8507 116.596 45.7528 116.596 46.728V50.9703H101.602Z" fill="#B2C5FF"/>
</svg>
