<svg width="139" height="62" viewBox="0 0 139 62" fill="none" xmlns="http://www.w3.org/2000/svg">
<path d="M98.169 41.5211C83.266 39.9021 65.888 40.2531 47.276 41.5871C44.161 41.8111 41.08 40.8001 38.691 38.7881L3.52902 9.16713C1.94002 7.82813 2.17704 5.25714 4.03304 4.32314C4.08404 4.29714 4.13604 4.27114 4.18704 4.24514C10.561 1.09614 18.238 2.2761 23.751 6.7651L42.281 21.0881" stroke="#FFBA32" stroke-width="3.32" stroke-miterlimit="2"/>
<path d="M71.82 21.1612L47.795 23.2162C44.083 23.5342 40.816 20.7822 40.499 17.0692C40.181 13.3572 42.933 10.0902 46.645 9.77219L63.927 8.29416C67.62 7.97816 71.148 6.78219 74.452 5.10019C84.977 -0.258808 99.998 5.77616 110.295 14.5442" stroke="#FFBA32" stroke-width="3.32" stroke-miterlimit="2"/>
<path fill-rule="evenodd" clip-rule="evenodd" d="M116.729 59.2181L100.515 52.0811C98.099 51.0171 96.758 48.3781 97.376 45.8121C100.444 33.0741 105.656 21.2521 112.987 10.3381C114.478 8.11909 117.364 7.31513 119.81 8.39113L135.971 15.5051L116.729 59.2181Z" stroke="#FFBA32" stroke-width="3.32" stroke-miterlimit="2"/>
</svg>
