<svg width="567" height="163" viewBox="0 0 567 163" fill="none" xmlns="http://www.w3.org/2000/svg">
<path d="M58.7433 44.2964V65.2562H22.7358V111.173H0V44.2964H58.7433ZM0 0H58.7433V20.6356H0V0Z" fill="#FFBA32"/>
<path d="M147.285 20.2035C148.953 24.237 149.787 28.4505 149.787 32.8442V111.173H127.921V83.731H111.386V62.123H127.921V32.0879C127.921 28.9907 126.87 26.4338 124.767 24.417C122.663 22.4003 120.053 21.3919 116.934 21.3919H104.098C102.067 21.3919 100 22.4003 97.897 24.417C95.8664 26.4338 94.851 28.9907 94.851 32.0879V111.173H72.8767V32.8442C72.8767 28.4505 73.747 24.237 75.4875 20.2035C77.3006 16.17 79.7301 12.6407 82.776 9.61556C85.7495 6.59044 89.2305 4.21356 93.2193 2.48493C96.9905 0.900335 101.015 0.0720268 105.294 0H117.043C121.467 0 125.673 0.828308 129.662 2.48493C133.723 4.21356 137.277 6.59044 140.323 9.61556C143.296 12.6407 145.617 16.17 147.285 20.2035Z" fill="#FFBA32"/>
<path d="M155.049 0H227.281V20.6356H202.044V111.173H179.852V20.6356H155.049V0Z" fill="#FFBA32"/>
<path d="M306.701 37.3818H284.726V31.0075C284.726 30.5753 284.69 30.1792 284.618 29.819C284.327 27.4422 283.348 25.3894 281.68 23.6608C281.608 23.6608 281.535 23.5887 281.463 23.4447C281.39 23.4447 281.354 23.4087 281.354 23.3366C279.468 22.1122 277.365 21.5 275.045 21.5H265.472C263.006 21.5 260.903 22.1482 259.162 23.4447C258.727 23.7328 258.328 24.0569 257.965 24.417C255.935 26.3618 254.92 28.8107 254.92 31.7638V79.4094C254.92 82.3625 255.935 84.8114 257.965 86.7561C258.328 87.1163 258.727 87.4404 259.162 87.7285C260.903 89.025 263.006 89.6732 265.472 89.6732H274.283C276.676 89.6012 278.779 88.989 280.593 87.8365C280.593 87.7645 280.629 87.7285 280.701 87.7285C280.774 87.6565 280.81 87.5844 280.81 87.5124C281.1 87.2963 281.318 87.0802 281.463 86.8642C282.913 85.2796 283.711 83.4069 283.856 81.2461C283.929 80.958 283.965 80.6339 283.965 80.2737V69.5778H276.459V49.1582H306.701V80.1657C306.701 81.4622 306.592 82.7947 306.374 84.1632C306.012 86.9722 305.214 89.6732 303.981 92.2662C302.313 96.2276 299.956 99.6489 296.91 102.53C296.547 102.89 296.149 103.25 295.713 103.61C293.248 105.699 290.419 107.392 287.228 108.688C283.312 110.273 279.251 111.101 275.045 111.173H265.472C261.193 111.173 257.059 110.345 253.07 108.688C249.154 107.032 245.709 104.727 242.736 101.774C239.69 98.8926 237.297 95.5074 235.556 91.6179C235.338 91.1137 235.193 90.6816 235.121 90.3214L234.686 89.4571V89.3491C234.468 88.7729 234.287 88.1967 234.142 87.6204V87.4044C234.069 87.3323 234.033 87.2243 234.033 87.0802C233.815 86.5761 233.707 86.0719 233.707 85.5677C233.634 85.4957 233.598 85.4236 233.598 85.3516C233.598 85.2796 233.562 85.2076 233.489 85.1355C233.489 84.9194 233.453 84.7394 233.38 84.5953C233.308 84.2352 233.235 83.8391 233.163 83.4069V82.3265C233.09 82.0384 233.054 81.7503 233.054 81.4622V81.2461C232.981 80.958 232.945 80.6339 232.945 80.2737V31.7638C232.945 29.9631 233.09 28.2345 233.38 26.5778C233.815 24.201 234.541 21.8601 235.556 19.5552C237.297 15.6658 239.69 12.2805 242.736 9.39948C245.709 6.44639 249.154 4.14153 253.07 2.48493C257.059 0.828308 261.193 0 265.472 0H275.045C279.251 0.0720268 283.312 0.900335 287.228 2.48493C290.419 3.7814 293.248 5.47403 295.713 7.5628C296.149 7.85091 296.547 8.21105 296.91 8.64321C299.956 11.5243 302.313 14.9455 303.981 18.907C305.214 21.5 306.012 24.201 306.374 27.01C306.592 28.3065 306.701 29.639 306.701 31.0075V37.3818Z" fill="#FFBA32"/>
<path d="M388.744 9.61556C391.862 12.5687 394.256 16.0259 395.924 19.9874C397.664 23.8768 398.534 28.0184 398.534 32.412V78.7612C398.534 83.2268 397.664 87.4044 395.924 91.2938C394.256 95.1832 391.862 98.6405 388.744 101.666C385.625 104.619 381.963 106.96 377.757 108.688C373.768 110.273 369.598 111.101 365.247 111.173H355.456C350.96 111.173 346.645 110.345 342.511 108.688C338.449 106.96 334.86 104.619 331.741 101.666C328.55 98.5685 326.048 95.0752 324.235 91.1858C322.494 87.3684 321.624 83.2268 321.624 78.7612V32.412C321.624 28.0184 322.531 23.8768 324.344 19.9874C326.229 16.0259 328.695 12.5687 331.741 9.61556C334.86 6.59044 338.449 4.24957 342.511 2.59297C346.645 0.864322 350.96 0 355.456 0H365.138C369.562 0.0720268 373.768 0.936349 377.757 2.59297C381.963 4.24957 385.625 6.59044 388.744 9.61556ZM372.753 24.0929C370.649 22.2202 368.075 21.2119 365.029 21.0678H355.238C352.12 21.0678 349.509 22.0762 347.406 24.0929C345.375 26.1097 344.36 28.5946 344.36 31.5477V79.5174C344.36 82.5426 345.375 85.0275 347.406 86.9722C349.509 88.989 352.12 89.9973 355.238 89.9973H364.811C367.93 89.9973 370.577 88.989 372.753 86.9722C374.928 85.0275 376.016 82.5426 376.016 79.5174V31.5477C376.016 28.5946 374.928 26.1097 372.753 24.0929Z" fill="#FFBA32"/>
<path d="M461.75 0H482.31V111.173H460.445C460.227 111.173 458.704 108.004 455.876 101.666C453.047 95.3273 449.893 88.0886 446.411 79.9496C442.858 71.8106 438.398 61.4027 433.031 48.726V111.173H412.906V0H434.336C434.554 0 436.077 3.13316 438.905 9.39948C441.661 15.7378 444.816 22.9405 448.37 31.0075C451.851 39.0745 456.311 49.4463 461.75 62.123V0Z" fill="#FFBA32"/>
<path d="M563.303 0V20.6356H504.56V0H563.303ZM563.303 44.2964V65.2562H527.295V90.5375H563.303V111.173H504.56V44.2964H563.303Z" fill="#FFBA32"/>
<path d="M281.445 156.471V154.344L286.71 141.759H281.98V139.396H290.131V141.109L284.836 154.078H290.012V156.471H281.445ZM284.063 136.648V133.133H287.275V136.648H284.063Z" fill="#EAE1D9"/>
<path d="M292.144 160.755V158.332C292.917 158.332 293.532 158.293 293.988 158.214C294.444 158.155 294.771 158.027 294.97 157.83C295.168 157.653 295.267 157.397 295.267 157.062C295.267 156.885 295.198 156.491 295.059 155.88C294.92 155.27 294.771 154.62 294.613 153.931L291.162 139.396H294.375L296.695 152.158L298.926 139.396H302.138L298.034 157.417C297.855 158.244 297.528 158.894 297.052 159.366C296.576 159.859 295.961 160.213 295.208 160.43C294.474 160.646 293.582 160.755 292.531 160.755H292.144Z" fill="#EAE1D9"/>
<path d="M303.525 160.784C303.267 160.784 302.979 160.765 302.662 160.725C302.365 160.706 302.107 160.656 301.889 160.578V158.303C301.988 158.322 302.127 158.342 302.305 158.362C302.484 158.382 302.622 158.391 302.722 158.391C303.178 158.391 303.535 158.303 303.792 158.126C304.05 157.948 304.229 157.702 304.328 157.387C304.447 157.072 304.506 156.717 304.506 156.323V139.396H307.689V156.648C307.689 157.988 307.312 159.012 306.559 159.721C305.825 160.43 304.814 160.784 303.525 160.784ZM304.506 136.855V133.546H307.719V136.855H304.506Z" fill="#EAE1D9"/>
<path d="M317.058 156.471V154.344L322.323 141.759H317.594V139.396H325.744V141.109L320.449 154.078H325.625V156.471H317.058Z" fill="#EAE1D9"/>
<path d="M332.011 156.707C330.563 156.707 329.483 156.186 328.769 155.142C328.055 154.078 327.698 152.286 327.698 149.765V146.456C327.698 145.157 327.807 143.955 328.025 142.852C328.243 141.73 328.65 140.833 329.245 140.164C329.859 139.494 330.752 139.159 331.922 139.159C332.497 139.159 333.022 139.287 333.498 139.543C333.974 139.8 334.401 140.115 334.777 140.489V132.542H337.96V156.471H334.777V155.378C334.401 155.772 333.984 156.097 333.528 156.353C333.092 156.589 332.586 156.707 332.011 156.707ZM332.814 154.226C333.112 154.226 333.429 154.177 333.766 154.078C334.103 153.96 334.44 153.793 334.777 153.576V142.38C334.5 142.183 334.192 142.015 333.855 141.877C333.518 141.72 333.151 141.641 332.755 141.641C332.021 141.641 331.525 141.995 331.267 142.705C331.01 143.394 330.881 144.231 330.881 145.216V150.031C330.881 150.819 330.92 151.538 331 152.188C331.099 152.818 331.287 153.32 331.565 153.694C331.842 154.049 332.259 154.226 332.814 154.226Z" fill="#EAE1D9"/>
<path d="M341.273 156.471V139.396H344.456V141.818C345.091 140.774 345.725 140.075 346.36 139.721C346.994 139.366 347.629 139.189 348.263 139.189C348.343 139.189 348.412 139.189 348.472 139.189C348.551 139.189 348.65 139.199 348.769 139.219V142.705C348.531 142.606 348.254 142.527 347.936 142.468C347.639 142.389 347.331 142.35 347.014 142.35C346.518 142.35 346.062 142.468 345.646 142.705C345.249 142.921 344.853 143.354 344.456 144.004V156.471H341.273Z" fill="#EAE1D9"/>
<path d="M355.47 156.707C354.201 156.707 353.2 156.451 352.466 155.939C351.732 155.427 351.207 154.699 350.89 153.753C350.592 152.808 350.443 151.695 350.443 150.415V145.452C350.443 144.172 350.592 143.059 350.89 142.114C351.207 141.168 351.732 140.44 352.466 139.928C353.2 139.415 354.201 139.159 355.47 139.159C356.74 139.159 357.731 139.415 358.445 139.928C359.179 140.44 359.694 141.168 359.992 142.114C360.309 143.059 360.468 144.172 360.468 145.452V150.415C360.468 151.695 360.309 152.808 359.992 153.753C359.694 154.699 359.179 155.427 358.445 155.939C357.731 156.451 356.74 156.707 355.47 156.707ZM355.47 154.374C356.085 154.374 356.512 154.196 356.75 153.842C357.007 153.487 357.156 153.025 357.196 152.453C357.255 151.863 357.285 151.252 357.285 150.622V145.275C357.285 144.625 357.255 144.014 357.196 143.443C357.156 142.872 357.007 142.409 356.75 142.055C356.512 141.68 356.085 141.493 355.47 141.493C354.856 141.493 354.419 141.68 354.162 142.055C353.904 142.409 353.745 142.872 353.686 143.443C353.646 144.014 353.626 144.625 353.626 145.275V150.622C353.626 151.252 353.646 151.863 353.686 152.453C353.745 153.025 353.904 153.487 354.162 153.842C354.419 154.196 354.856 154.374 355.47 154.374Z" fill="#EAE1D9"/>
<path d="M365.138 156.471L362.371 139.396H364.989L366.774 151.981L369.064 139.396H371.503L373.794 151.922L375.578 139.396H378.196L375.34 156.471H372.663L370.313 144.418L367.993 156.471H365.138Z" fill="#EAE1D9"/>
<path d="M385.361 156.707C384.092 156.707 383.091 156.451 382.357 155.939C381.623 155.427 381.098 154.699 380.78 153.753C380.483 152.808 380.334 151.695 380.334 150.415V145.452C380.334 144.172 380.483 143.059 380.78 142.114C381.098 141.168 381.623 140.44 382.357 139.928C383.091 139.415 384.092 139.159 385.361 139.159C386.63 139.159 387.622 139.415 388.336 139.928C389.07 140.44 389.585 141.168 389.883 142.114C390.2 143.059 390.359 144.172 390.359 145.452V150.415C390.359 151.695 390.2 152.808 389.883 153.753C389.585 154.699 389.07 155.427 388.336 155.939C387.622 156.451 386.63 156.707 385.361 156.707ZM385.361 154.374C385.976 154.374 386.402 154.196 386.64 153.842C386.898 153.487 387.047 153.025 387.087 152.453C387.146 151.863 387.176 151.252 387.176 150.622V145.275C387.176 144.625 387.146 144.014 387.087 143.443C387.047 142.872 386.898 142.409 386.64 142.055C386.402 141.68 385.976 141.493 385.361 141.493C384.747 141.493 384.31 141.68 384.052 142.055C383.795 142.409 383.636 142.872 383.577 143.443C383.537 144.014 383.517 144.625 383.517 145.275V150.622C383.517 151.252 383.537 151.863 383.577 152.453C383.636 153.025 383.795 153.487 384.052 153.842C384.31 154.196 384.747 154.374 385.361 154.374Z" fill="#EAE1D9"/>
<path d="M393.357 160.341L392.851 158.982C393.387 158.805 393.803 158.49 394.101 158.037C394.418 157.604 394.577 157.082 394.577 156.471H392.881V153.074H396.153V156.412C396.153 157.456 395.925 158.283 395.469 158.894C395.013 159.524 394.309 160.006 393.357 160.341Z" fill="#EAE1D9"/>
<path d="M410.313 156.707C408.905 156.707 407.834 156.432 407.101 155.88C406.387 155.309 405.901 154.512 405.643 153.487C405.405 152.463 405.286 151.272 405.286 149.913V145.984C405.286 144.546 405.415 143.325 405.673 142.32C405.931 141.296 406.417 140.518 407.13 139.987C407.864 139.435 408.925 139.159 410.313 139.159C411.562 139.159 412.524 139.366 413.199 139.78C413.893 140.174 414.368 140.774 414.626 141.582C414.884 142.37 415.013 143.354 415.013 144.536V145.541H412.128V144.507C412.128 143.758 412.078 143.167 411.979 142.734C411.88 142.301 411.701 141.986 411.444 141.789C411.186 141.592 410.819 141.493 410.343 141.493C409.827 141.493 409.431 141.611 409.153 141.848C408.875 142.084 408.687 142.488 408.588 143.059C408.509 143.61 408.469 144.369 408.469 145.334V150.71C408.469 152.168 408.608 153.143 408.885 153.635C409.163 154.127 409.659 154.374 410.373 154.374C410.908 154.374 411.295 154.255 411.533 154.019C411.791 153.763 411.949 153.409 412.009 152.956C412.088 152.503 412.128 151.991 412.128 151.419V150.031H415.013V151.213C415.013 152.355 414.874 153.34 414.597 154.167C414.339 154.994 413.863 155.624 413.169 156.058C412.495 156.491 411.543 156.707 410.313 156.707Z" fill="#EAE1D9"/>
<path d="M417.188 156.471V154.344L422.453 141.759H417.724V139.396H425.874V141.109L420.579 154.078H425.755V156.471H417.188Z" fill="#EAE1D9"/>
<path d="M430.624 156.707C429.95 156.707 429.424 156.53 429.047 156.176C428.671 155.821 428.403 155.378 428.244 154.846C428.105 154.315 428.036 153.773 428.036 153.222V139.396H431.219V152.276C431.219 152.887 431.308 153.369 431.486 153.724C431.665 154.059 432.032 154.226 432.587 154.226C432.944 154.226 433.311 154.127 433.688 153.931C434.084 153.714 434.461 153.458 434.818 153.162V139.396H438.001V156.471H434.818V154.787C434.263 155.319 433.628 155.772 432.914 156.146C432.22 156.52 431.457 156.707 430.624 156.707Z" fill="#EAE1D9"/>
<path d="M440.72 160.784C440.463 160.784 440.175 160.765 439.858 160.725C439.56 160.706 439.303 160.656 439.084 160.578V158.303C439.184 158.322 439.322 158.342 439.501 158.362C439.679 158.382 439.818 158.391 439.917 158.391C440.373 158.391 440.73 158.303 440.988 158.126C441.246 157.948 441.424 157.702 441.524 157.387C441.642 157.072 441.702 156.717 441.702 156.323V139.396H444.885V156.648C444.885 157.988 444.508 159.012 443.754 159.721C443.021 160.43 442.009 160.784 440.72 160.784ZM441.702 136.855V133.546H444.915V136.855H441.702Z" fill="#EAE1D9"/>
<path d="M458.894 156.707C457.487 156.707 456.356 156.274 455.503 155.408C454.651 154.521 454.165 153.359 454.046 151.922L456.693 151.124C456.852 152.207 457.12 153.025 457.496 153.576C457.873 154.108 458.428 154.374 459.162 154.374C459.737 154.374 460.174 154.216 460.471 153.901C460.768 153.566 460.917 153.123 460.917 152.572C460.917 152.079 460.808 151.636 460.59 151.242C460.372 150.848 460.015 150.445 459.519 150.031L456.574 147.52C455.979 147.008 455.474 146.437 455.057 145.806C454.661 145.176 454.462 144.359 454.462 143.354C454.462 142.448 454.641 141.69 454.998 141.08C455.375 140.449 455.89 139.977 456.545 139.662C457.219 139.327 458.002 139.159 458.894 139.159C460.263 139.159 461.304 139.603 462.018 140.489C462.751 141.355 463.168 142.409 463.267 143.65L461.125 144.447C461.046 143.857 460.927 143.345 460.768 142.911C460.61 142.458 460.392 142.114 460.114 141.877C459.836 141.621 459.47 141.493 459.013 141.493C458.498 141.493 458.081 141.671 457.764 142.025C457.467 142.36 457.318 142.764 457.318 143.236C457.318 143.532 457.377 143.827 457.496 144.123C457.635 144.398 457.863 144.674 458.181 144.95L461.215 147.727C461.631 148.101 462.018 148.505 462.375 148.938C462.751 149.371 463.059 149.864 463.297 150.415C463.535 150.966 463.654 151.607 463.654 152.335C463.654 153.3 463.455 154.108 463.059 154.758C462.662 155.408 462.107 155.9 461.393 156.235C460.679 156.55 459.846 156.707 458.894 156.707Z" fill="#EAE1D9"/>
<path d="M466.242 156.471V139.396H469.425V156.471H466.242ZM466.242 136.855V133.546H469.425V136.855H466.242Z" fill="#EAE1D9"/>
<path d="M477.591 156.707C476.242 156.707 475.201 156.451 474.467 155.939C473.734 155.408 473.218 154.64 472.921 153.635C472.643 152.611 472.504 151.36 472.504 149.883V145.984C472.504 144.467 472.653 143.207 472.95 142.202C473.248 141.198 473.763 140.44 474.497 139.928C475.251 139.415 476.282 139.159 477.591 139.159C479.038 139.159 480.099 139.455 480.774 140.046C481.468 140.637 481.924 141.493 482.142 142.616C482.36 143.719 482.469 145.048 482.469 146.604V147.993H475.687V151.419C475.687 152.109 475.747 152.67 475.865 153.103C476.004 153.537 476.213 153.862 476.49 154.078C476.788 154.275 477.164 154.374 477.62 154.374C478.096 154.374 478.453 154.265 478.691 154.049C478.949 153.812 479.118 153.487 479.197 153.074C479.296 152.641 479.346 152.138 479.346 151.567V150.533H482.439V151.183C482.439 152.897 482.072 154.246 481.339 155.23C480.605 156.215 479.356 156.707 477.591 156.707ZM475.687 146.279H479.346V144.743C479.346 144.034 479.306 143.443 479.227 142.97C479.147 142.478 478.979 142.114 478.721 141.877C478.483 141.621 478.096 141.493 477.561 141.493C477.045 141.493 476.649 141.611 476.371 141.848C476.113 142.084 475.935 142.488 475.836 143.059C475.737 143.61 475.687 144.379 475.687 145.363V146.279ZM478.691 163C478.156 163 477.64 162.97 477.145 162.911C476.649 162.852 476.203 162.734 475.806 162.557C475.429 162.38 475.122 162.124 474.884 161.789C474.666 161.454 474.557 161.011 474.557 160.459C474.557 159.809 474.725 159.189 475.062 158.598C475.399 158.007 475.816 157.495 476.312 157.062C476.827 156.629 477.343 156.333 477.858 156.176H479.465C479.108 156.491 478.731 156.855 478.334 157.269C477.958 157.702 477.63 158.145 477.353 158.598C477.095 159.071 476.966 159.534 476.966 159.987C476.966 160.597 477.224 160.981 477.739 161.139C478.255 161.316 478.79 161.405 479.346 161.405C479.504 161.405 479.663 161.395 479.822 161.375C480 161.375 480.159 161.365 480.298 161.346L479.762 162.911C479.604 162.931 479.425 162.951 479.227 162.97C479.028 162.99 478.85 163 478.691 163Z" fill="#EAE1D9"/>
<path d="M492.149 162.084V139.396H495.331V140.755C495.708 140.321 496.164 139.947 496.7 139.632C497.235 139.317 497.87 139.159 498.603 139.159C499.496 139.159 500.2 139.396 500.715 139.868C501.251 140.321 501.647 140.902 501.905 141.611C502.163 142.301 502.332 143.01 502.411 143.738C502.49 144.447 502.53 145.058 502.53 145.57V149.706C502.53 150.907 502.411 152.05 502.173 153.133C501.935 154.196 501.499 155.063 500.864 155.733C500.249 156.383 499.377 156.707 498.246 156.707C497.632 156.707 497.086 156.56 496.61 156.264C496.135 155.949 495.708 155.595 495.331 155.201V162.084H492.149ZM497.622 154.226C498.177 154.226 498.574 154.029 498.812 153.635C499.05 153.222 499.198 152.67 499.258 151.981C499.317 151.291 499.347 150.533 499.347 149.706V145.57C499.347 144.861 499.307 144.211 499.228 143.62C499.149 143.01 498.98 142.527 498.722 142.173C498.465 141.818 498.058 141.641 497.503 141.641C497.086 141.641 496.69 141.73 496.313 141.907C495.936 142.084 495.609 142.291 495.331 142.527V153.458C495.629 153.675 495.966 153.862 496.343 154.019C496.72 154.157 497.146 154.226 497.622 154.226Z" fill="#EAE1D9"/>
<path d="M505.632 156.471V139.396H508.815V156.471H505.632ZM505.632 136.855V133.546H508.815V136.855H505.632Z" fill="#EAE1D9"/>
<path d="M516.98 156.707C515.632 156.707 514.591 156.451 513.857 155.939C513.123 155.408 512.608 154.64 512.31 153.635C512.033 152.611 511.894 151.36 511.894 149.883V145.984C511.894 144.467 512.043 143.207 512.34 142.202C512.638 141.198 513.153 140.44 513.887 139.928C514.64 139.415 515.672 139.159 516.98 139.159C518.428 139.159 519.489 139.455 520.163 140.046C520.857 140.637 521.313 141.493 521.531 142.616C521.75 143.719 521.859 145.048 521.859 146.604V147.993H515.077V151.419C515.077 152.109 515.136 152.67 515.255 153.103C515.394 153.537 515.602 153.862 515.88 154.078C516.177 154.275 516.554 154.374 517.01 154.374C517.486 154.374 517.843 154.265 518.081 154.049C518.339 153.812 518.507 153.487 518.587 153.074C518.686 152.641 518.735 152.138 518.735 151.567V150.533H521.829V151.183C521.829 152.897 521.462 154.246 520.728 155.23C519.995 156.215 518.745 156.707 516.98 156.707ZM515.077 146.279H518.735V144.743C518.735 144.034 518.696 143.443 518.616 142.97C518.537 142.478 518.369 142.114 518.111 141.877C517.873 141.621 517.486 141.493 516.951 141.493C516.435 141.493 516.038 141.611 515.761 141.848C515.503 142.084 515.325 142.488 515.225 143.059C515.126 143.61 515.077 144.379 515.077 145.363V146.279ZM518.081 163C517.546 163 517.03 162.97 516.534 162.911C516.038 162.852 515.592 162.734 515.196 162.557C514.819 162.38 514.512 162.124 514.274 161.789C514.055 161.454 513.946 161.011 513.946 160.459C513.946 159.809 514.115 159.189 514.452 158.598C514.789 158.007 515.206 157.495 515.701 157.062C516.217 156.629 516.733 156.333 517.248 156.176H518.854C518.497 156.491 518.121 156.855 517.724 157.269C517.347 157.702 517.02 158.145 516.742 158.598C516.485 159.071 516.356 159.534 516.356 159.987C516.356 160.597 516.614 160.981 517.129 161.139C517.645 161.316 518.18 161.405 518.735 161.405C518.894 161.405 519.053 161.395 519.211 161.375C519.39 161.375 519.548 161.365 519.687 161.346L519.152 162.911C518.993 162.931 518.815 162.951 518.616 162.97C518.418 162.99 518.24 163 518.081 163Z" fill="#EAE1D9"/>
<path d="M524.8 156.442V132.512H527.983V146.781L532.624 139.396H535.955L531.91 146.072L535.836 156.471H532.653L529.441 147.727L527.983 149.913V156.442H524.8Z" fill="#EAE1D9"/>
<path d="M537.493 156.471V139.396H540.676V141.08C541.251 140.548 541.886 140.095 542.58 139.721C543.274 139.347 544.037 139.159 544.87 139.159C545.564 139.159 546.09 139.337 546.447 139.691C546.823 140.046 547.081 140.489 547.22 141.021C547.379 141.552 547.458 142.094 547.458 142.645V156.471H544.275V143.561C544.275 142.951 544.186 142.478 544.008 142.143C543.829 141.808 543.462 141.641 542.907 141.641C542.55 141.641 542.173 141.749 541.777 141.966C541.4 142.163 541.033 142.409 540.676 142.705V156.471H537.493Z" fill="#EAE1D9"/>
<path d="M550.773 156.471V139.396H553.956V156.471H550.773ZM550.773 136.855V133.546H553.956V136.855H550.773Z" fill="#EAE1D9"/>
<path d="M562.122 156.707C560.773 156.707 559.732 156.451 558.998 155.939C558.265 155.408 557.749 154.64 557.452 153.635C557.174 152.611 557.035 151.36 557.035 149.883V145.984C557.035 144.467 557.184 143.207 557.481 142.202C557.779 141.198 558.294 140.44 559.028 139.928C559.782 139.415 560.813 139.159 562.122 139.159C563.569 139.159 564.63 139.455 565.304 140.046C565.999 140.637 566.455 141.493 566.673 142.616C566.891 143.719 567 145.048 567 146.604V147.993H560.218V151.419C560.218 152.109 560.277 152.67 560.396 153.103C560.535 153.537 560.743 153.862 561.021 154.078C561.319 154.275 561.695 154.374 562.151 154.374C562.627 154.374 562.984 154.265 563.222 154.049C563.48 153.812 563.649 153.487 563.728 153.074C563.827 152.641 563.877 152.138 563.877 151.567V150.533H566.97V151.183C566.97 152.897 566.603 154.246 565.87 155.23C565.136 156.215 563.887 156.707 562.122 156.707ZM560.218 146.279H563.877V144.743C563.877 144.034 563.837 143.443 563.758 142.97C563.678 142.478 563.51 142.114 563.252 141.877C563.014 141.621 562.627 141.493 562.092 141.493C561.576 141.493 561.18 141.611 560.902 141.848C560.644 142.084 560.466 142.488 560.367 143.059C560.268 143.61 560.218 144.379 560.218 145.363V146.279Z" fill="#EAE1D9"/>
</svg>
