<svg width="24" height="24" viewBox="0 0 24 24" fill="none" xmlns="http://www.w3.org/2000/svg">
<path d="M9.72801 9.56268V14.0875L3.7651 14.0875L3.7651 24H0L0 9.56268L9.72801 9.56268ZM0 0L9.72801 0V4.45481L0 4.45481L0 0Z" fill="#FFBA32"/>
<path d="M24 8.06997L20.361 8.06997V6.69388C20.361 6.60058 20.355 6.51506 20.343 6.43732C20.2949 5.9242 20.1328 5.48105 19.8566 5.10787C19.8446 5.10787 19.8326 5.09232 19.8206 5.06123C19.8086 5.06123 19.8025 5.05345 19.8025 5.0379C19.4903 4.77357 19.142 4.6414 18.7577 4.6414L17.1724 4.6414C16.764 4.6414 16.4158 4.78134 16.1275 5.06123C16.0555 5.12342 15.9894 5.19339 15.9294 5.27114C15.5931 5.69096 15.4249 6.21963 15.4249 6.85714L15.4249 17.1429C15.4249 17.7804 15.5931 18.309 15.9294 18.7289C15.9894 18.8066 16.0555 18.8766 16.1275 18.9388C16.4158 19.2187 16.764 19.3586 17.1724 19.3586H18.6316C19.0279 19.3431 19.3762 19.2109 19.6764 18.9621C19.6764 18.9466 19.6824 18.9388 19.6945 18.9388C19.7065 18.9232 19.7125 18.9077 19.7125 18.8921C19.7605 18.8455 19.7965 18.7988 19.8206 18.7522C20.0608 18.4101 20.1929 18.0058 20.2169 17.5394C20.2289 17.4772 20.2349 17.4072 20.2349 17.3294V15.0204H18.9919L18.9919 10.6122L24 10.6122L24 17.3061C24 17.586 23.982 17.8737 23.946 18.1691C23.8859 18.7755 23.7538 19.3586 23.5496 19.9184C23.2734 20.7736 22.8831 21.5121 22.3787 22.1341C22.3186 22.2119 22.2526 22.2896 22.1805 22.3673C21.7722 22.8183 21.3038 23.1837 20.7753 23.4636C20.1268 23.8056 19.4543 23.9845 18.7577 24H17.1724C16.4638 24 15.7792 23.8212 15.1187 23.4636C14.4702 23.1059 13.8997 22.6084 13.4073 21.9708C12.9029 21.3489 12.5065 20.6181 12.2183 19.7784C12.1823 19.6696 12.1583 19.5763 12.1462 19.4985L12.0742 19.312V19.2886C12.0382 19.1642 12.0081 19.0398 11.9841 18.9155V18.8688C11.9721 18.8533 11.9661 18.8299 11.9661 18.7988C11.9301 18.69 11.9121 18.5811 11.9121 18.4723C11.9 18.4568 11.894 18.4412 11.894 18.4257C11.894 18.4101 11.888 18.3946 11.876 18.379C11.876 18.3324 11.87 18.2935 11.858 18.2624C11.846 18.1846 11.834 18.0991 11.822 18.0058V17.7726C11.81 17.7104 11.804 17.6482 11.804 17.586V17.5394C11.7919 17.4772 11.7859 17.4072 11.7859 17.3294L11.7859 6.85714C11.7859 6.46842 11.81 6.09524 11.858 5.73761C11.9301 5.22449 12.0502 4.71915 12.2183 4.22157C12.5065 3.38193 12.9029 2.65112 13.4073 2.02915C13.8997 1.39164 14.4702 0.894072 15.1187 0.536444C15.7792 0.178815 16.4638 0 17.1724 0L18.7577 0C19.4543 0.0155491 20.1268 0.194364 20.7753 0.536444C21.3038 0.816327 21.7722 1.18173 22.1805 1.63265C22.2526 1.69485 22.3186 1.7726 22.3787 1.86589C22.8831 2.48785 23.2734 3.22643 23.5496 4.08163C23.7538 4.6414 23.8859 5.22449 23.946 5.8309C23.982 6.11079 24 6.39845 24 6.69388V8.06997Z" fill="#FFBA32"/>
</svg>
